<?xml version="1.0" encoding="utf-8"?>
<!-- Generator: Adobe Illustrator 26.0.2, SVG Export Plug-In . SVG Version: 6.00 Build 0)  -->
<svg version="1.1" id="Ebene_1" xmlns="http://www.w3.org/2000/svg" xmlns:xlink="http://www.w3.org/1999/xlink" x="0px" y="0px"
	 viewBox="0 0 841.89 595.28" style="enable-background:new 0 0 841.89 595.28;" xml:space="preserve">
<style type="text/css">
	.st0{fill-rule:evenodd;clip-rule:evenodd;fill:#4C4E4E;}
	.st1{fill-rule:evenodd;clip-rule:evenodd;fill:#E31E24;}
</style>
<g>
	<path class="st0" d="M647.99,330.65c0.63-1.39,1.5-3.01,2.61-4.84c1.11-1.84,2.34-3.73,3.71-5.67c1.37-1.94,2.79-3.84,4.25-5.69
		c1.46-1.85,2.83-3.47,4.11-4.85c1.27-1.38,2.41-2.45,3.4-3.2c0.99-0.76,1.72-0.99,2.19-0.72c1.18,0.73,2.37,1.68,3.59,2.85
		c1.22,1.17,1.97,2.21,2.25,3.14c0.24,0.65,0.27,1.46,0.07,2.41c-0.19,0.95-0.52,2.11-0.98,3.48c-1.06,3.03-2.06,5.73-3,8.09
		c-0.94,2.36-1.72,4.38-2.35,6.04c-0.62,1.67-1.07,2.95-1.35,3.84c-0.27,0.9-0.34,1.37-0.2,1.42c0.33,0.23,0.94-0.15,1.85-1.13
		c0.91-0.98,1.98-2.37,3.23-4.16c1.25-1.79,2.58-3.83,4-6.12c1.42-2.29,2.85-4.6,4.29-6.93c1.44-2.33,2.81-4.56,4.1-6.7
		c1.3-2.14,2.41-3.92,3.33-5.36c0.85,0.02,1.11,0.5,0.76,1.44c-0.35,0.94-1.12,2.49-2.32,4.65c-0.9,1.5-1.96,3.24-3.19,5.23
		c-1.23,1.99-2.5,4.06-3.79,6.19c-1.3,2.14-2.62,4.24-3.97,6.32c-1.35,2.08-2.62,3.92-3.81,5.53c-1.19,1.61-2.23,2.92-3.13,3.94
		c-0.89,1.02-1.6,1.49-2.1,1.43c-0.66,0.02-1.39-0.08-2.2-0.31c-0.81-0.23-1.62-0.58-2.43-1.05c-0.81-0.47-1.57-1-2.27-1.59
		c-0.7-0.59-1.26-1.2-1.67-1.83c-0.52-0.75-0.5-2.25,0.07-4.49c0.56-2.24,1.37-4.77,2.41-7.6c1.04-2.82,2.23-5.68,3.55-8.58
		c1.32-2.9,2.5-5.38,3.56-7.45c-1.27,1.14-2.62,2.58-4.03,4.32c-1.41,1.74-2.81,3.6-4.2,5.58c-1.39,1.98-2.73,3.99-4.04,6.02
		c-1.3,2.04-2.47,3.95-3.51,5.74c-1.03,1.79-1.88,3.39-2.54,4.78c-0.66,1.4-1.05,2.45-1.15,3.15c-0.67-0.18-1.48-0.53-2.43-1.05
		c-0.95-0.52-1.83-1.15-2.65-1.9c-0.82-0.74-1.5-1.52-2.05-2.34c-0.54-0.82-0.73-1.65-0.56-2.5c0.22-1.22,0.52-2.48,0.9-3.8
		c-1.4,1.74-2.86,3.41-4.36,5.01c-2.09,2.21-4.18,4.17-6.27,5.87c-2.1,1.7-3.99,2.8-5.67,3.31c-0.87,0.26-1.79,0.32-2.75,0.18
		c-0.96-0.14-1.88-0.42-2.77-0.85c-1.37-0.77-2.67-1.91-3.9-3.42c-0.59-0.73-1.12-1.46-1.58-2.18c-2.49,3.27-5.14,6.62-7.95,10.05
		c-0.8,0.94-1.78,1.41-2.92,1.44c-0.66,0.02-1.45-0.09-2.39-0.34c-0.94-0.25-1.87-0.67-2.78-1.26c-0.92-0.59-1.71-1.34-2.37-2.24
		c-0.67-0.9-1.06-2-1.17-3.29c-0.2-2.51,0.41-5.93,1.84-10.25c-1.45,2.13-2.74,4.16-3.87,6.1c-1.13,1.94-2.38,4-3.75,6.19
		c-0.8,1.28-1.56,2.45-2.29,3.51c-0.73,1.06-1.74,1.31-3.04,0.73c-1.37-0.77-2.67-1.91-3.9-3.42c-1.22-1.51-2.17-3.01-2.84-4.49
		c-0.41-1.11-0.46-2.55-0.14-4.31c0.05-0.29,0.11-0.58,0.18-0.88c-0.82,1.06-1.66,2.15-2.52,3.26c-1.37,1.77-2.74,3.51-4.11,5.21
		c0.96,0.96,1.89,1.93,2.8,2.9c0.9,0.97,1.67,1.9,2.3,2.77c0.67,1,0.99,2.07,0.96,3.21c-0.03,1.14-0.29,2.27-0.78,3.4
		c-0.49,1.13-1.14,2.2-1.95,3.21c-0.81,1.01-1.68,1.88-2.61,2.63c-0.93,0.75-1.84,1.32-2.72,1.72c-0.88,0.4-1.65,0.54-2.29,0.42
		c-0.45-0.07-1.04-0.23-1.76-0.48c-0.73-0.24-1.49-0.58-2.28-1.02c-0.8-0.44-1.54-0.97-2.22-1.59c-0.69-0.63-1.21-1.36-1.58-2.2
		c-0.17-0.46-0.07-1.14,0.29-2.05c0.36-0.91,0.93-1.95,1.71-3.12c0.78-1.17,1.73-2.49,2.85-3.95c1.12-1.46,2.32-3,3.6-4.62
		c-0.71-0.93-1.51-1.83-2.41-2.7c-0.9-0.87-1.76-1.78-2.6-2.73c-0.64-0.72-1.21-1.49-1.72-2.29c-0.55,0.77-1.14,1.55-1.75,2.36
		c-1.89,2.49-3.88,4.85-5.97,7.06c-2.09,2.21-4.18,4.17-6.27,5.87c-2.1,1.7-3.99,2.8-5.67,3.31c-0.87,0.26-1.79,0.32-2.75,0.18
		c-0.96-0.14-1.88-0.42-2.77-0.85c-1.37-0.77-2.67-1.91-3.9-3.42c-1.22-1.51-2.17-3.01-2.84-4.49c-0.4-1.09-0.46-2.49-0.16-4.21
		c-0.72,0.74-1.39,1.33-2.01,1.78c-0.76,0.55-1.52,0.81-2.25,0.78c-0.67-0.18-1.48-0.53-2.43-1.05c-0.95-0.52-1.83-1.13-2.63-1.85
		c-0.81-0.71-1.49-1.49-2.05-2.34c-0.56-0.85-0.81-1.69-0.75-2.52c0.12-0.98,0.7-2.09,1.72-3.33c1.02-1.24,2.04-2.31,3.04-3.2
		c-0.77,0.38-2.17,1.57-4.22,3.58c-2.04,2-4.22,4.47-6.52,7.4c-2.31,2.93-4.44,6.13-6.39,9.59c-1.96,3.46-3.22,6.88-3.79,10.26
		c-0.18,0.16-0.57,0.05-1.17-0.35c-0.6-0.4-1.26-0.96-1.98-1.68c-0.72-0.72-1.42-1.55-2.1-2.49c-0.68-0.94-1.17-1.83-1.49-2.68
		c-0.36-0.98-0.36-2.25,0-3.81c0.36-1.56,0.9-3.21,1.61-4.96c0.72-1.75,1.58-3.5,2.6-5.25c1.02-1.76,2.01-3.35,2.99-4.79
		c0.98-1.44,1.87-2.63,2.68-3.57c0.8-0.94,1.4-1.46,1.77-1.59c0.55-0.15,1.2-0.03,1.94,0.35c0.74,0.38,1.45,0.86,2.13,1.45
		c0.67,0.59,1.28,1.21,1.82,1.86c0.54,0.65,0.85,1.17,0.94,1.57c-0.26,0.11-0.57,0.35-0.9,0.74c-0.34,0.39-0.92,1.19-1.74,2.41
		c0.02,0.07,0.28-0.14,0.77-0.62c0.49-0.48,1.14-1.1,1.94-1.87c0.81-0.76,1.72-1.6,2.75-2.49c1.03-0.9,2.05-1.74,3.06-2.54
		c1.01-0.79,1.95-1.47,2.83-2.04c0.88-0.57,1.59-0.93,2.15-1.07c0.4-0.06,0.98,0.12,1.74,0.53c0.76,0.41,1.52,0.96,2.28,1.64
		c0.77,0.68,1.42,1.42,1.95,2.2c0.53,0.78,0.79,1.49,0.78,2.11c-0.55,0.49-1.14,1.1-1.77,1.84c-0.63,0.74-1.22,1.49-1.75,2.25
		c-0.54,0.76-0.95,1.47-1.25,2.13c-0.3,0.66-0.38,1.19-0.23,1.58c0.34,0.09,0.91-0.21,1.71-0.91c0.8-0.7,1.79-1.62,2.97-2.78
		l0.52-0.51c0.18-0.46,0.38-0.92,0.59-1.39c0.89-1.94,2-3.85,3.33-5.72c1.34-1.87,2.78-3.49,4.32-4.88c1.08-0.84,2.06-1.47,2.93-1.9
		c0.87-0.43,1.77-0.61,2.71-0.53c0.94,0.08,1.96,0.4,3.08,0.96c1.12,0.56,2.45,1.39,4,2.48c0.41,0.29,0.66,0.61,0.77,0.97
		c0.1,0.36,0.2,0.67,0.3,0.94c0.95,0.76,1.7,1.39,2.25,1.9c0.55,0.51,0.95,1.09,1.19,1.74c0.12,0.81-0.18,1.77-0.88,2.9
		c-0.7,1.13-1.56,2.21-2.57,3.24c-1.01,1.03-2.05,1.86-3.12,2.49c-1.07,0.63-1.91,0.85-2.52,0.66c-3.54-1.22-5.34-2.65-5.4-4.29
		c-0.42,0.68-0.87,1.46-1.35,2.35c-0.49,0.89-0.95,1.81-1.38,2.77c-0.43,0.95-0.79,1.88-1.06,2.77c-0.27,0.9-0.41,1.69-0.39,2.37
		c0.02,2.33,0.79,3.65,2.32,3.95c1.53,0.3,3.59-0.45,6.16-2.25c2.57-1.8,5.59-4.64,9.06-8.52c1.75-1.96,3.57-4.21,5.45-6.73
		c-0.24-0.73-0.39-1.51-0.46-2.36c-0.1-1.43,0.18-2.84,0.84-4.24c0.66-1.4,1.5-2.65,2.52-3.75c1.01-1.1,2.07-2.01,3.17-2.71
		c1.1-0.7,2.01-1.07,2.73-1.1c0.43,0.01,1.02,0.13,1.77,0.37c0.75,0.24,1.51,0.58,2.28,1.02c0.77,0.44,1.5,0.94,2.19,1.5
		c0.69,0.56,1.23,1.12,1.62,1.68c0.54,0.82,0.75,1.71,0.63,2.69c-0.12,0.98-0.43,1.91-0.91,2.8c-0.49,0.89-1.04,1.64-1.67,2.24
		c-0.63,0.6-1.14,0.93-1.54,0.99c-0.29,0.04-0.54-0.08-0.77-0.36c-0.22-0.28-0.25-0.6-0.08-0.97c0.3-0.18,0.64-0.48,1.02-0.91
		c0.38-0.43,0.76-0.89,1.12-1.39c0.36-0.5,0.67-1.02,0.92-1.57c0.25-0.55,0.38-1.07,0.38-1.55c-0.18-0.32-0.33-0.52-0.45-0.61
		c-0.12-0.09-0.33-0.04-0.63,0.14c-0.56,0.28-1.26,0.81-2.09,1.58c-0.84,0.77-1.63,1.65-2.38,2.65c-0.75,1-1.41,1.96-1.97,2.9
		c-0.56,0.94-0.85,1.71-0.86,2.33c-0.06,0.97,0.17,1.98,0.72,3.04c0.54,1.06,1.22,2.04,2.05,2.96c1.37-1.7,2.78-3.41,4.23-5.12
		c1.45-1.71,2.82-3.38,4.1-5l1.16-1.48l0.13-0.3c0.89-1.94,2-3.85,3.33-5.72c1.34-1.87,2.78-3.49,4.32-4.88
		c1.08-0.84,2.06-1.47,2.93-1.9c0.87-0.43,1.77-0.61,2.71-0.53c0.94,0.08,1.96,0.4,3.08,0.96c1.12,0.56,2.45,1.39,4,2.48
		c0.33,0.23,0.55,0.58,0.66,1.04c0.11,0.46,0.25,0.75,0.41,0.87c0.98-2.26,2.01-4.59,3.1-6.97c1.09-2.38,2.21-4.7,3.37-6.96
		c1.16-2.26,2.34-4.39,3.53-6.41c1.19-2.02,2.37-3.83,3.53-5.44c0.35-0.53,1.06-0.77,2.14-0.71c1.08,0.06,2.17,0.3,3.26,0.73
		c1.1,0.43,2.11,1.03,3.02,1.79c0.92,0.76,1.41,1.55,1.47,2.37c-0.55,0.15-1.46,1.2-2.73,3.16c-1.27,1.96-2.7,4.44-4.28,7.45
		c-1.58,3-3.2,6.25-4.84,9.74c-1.64,3.49-3.12,6.85-4.44,10.09c-1.31,3.24-2.37,6.08-3.16,8.52c-0.79,2.44-1.09,4.1-0.89,4.96
		c0.33,0.23,0.99-0.07,1.98-0.9c1-0.83,2.17-1.99,3.53-3.48c1.35-1.49,2.81-3.24,4.37-5.24l0.13-0.16l-0.03-0.06
		c-0.41-1.11-0.46-2.55-0.14-4.31c0.32-1.76,0.92-3.61,1.8-5.56c0.89-1.94,2-3.85,3.33-5.72c1.34-1.87,2.78-3.49,4.32-4.88
		c1.08-0.84,2.06-1.47,2.93-1.9c0.87-0.43,1.77-0.61,2.71-0.53c0.94,0.08,1.96,0.4,3.08,0.96c1.12,0.56,2.45,1.39,4,2.48
		c0.41,0.29,0.67,0.61,0.77,0.97c0.1,0.36,0.2,0.68,0.3,0.94c0.95,0.76,1.69,1.39,2.25,1.9c0.55,0.51,0.95,1.09,1.19,1.74
		c0.12,0.81-0.18,1.78-0.88,2.9c-0.7,1.13-1.56,2.21-2.57,3.24c-1.01,1.03-2.05,1.86-3.12,2.49c-1.07,0.63-1.91,0.85-2.52,0.66
		c-3.54-1.22-5.34-2.65-5.4-4.29c-0.42,0.68-0.87,1.46-1.35,2.35c-0.49,0.89-0.95,1.81-1.38,2.77c-0.43,0.95-0.79,1.88-1.06,2.77
		c-0.27,0.9-0.4,1.69-0.39,2.37c0.01,2.33,0.79,3.65,2.32,3.95c1.53,0.3,3.59-0.45,6.16-2.25c2.57-1.8,5.59-4.64,9.06-8.52
		c1.76-1.98,3.59-4.23,5.48-6.76c0.13-0.32,0.26-0.64,0.39-0.95c0.77-1.86,1.54-3.53,2.32-5.01c0.78-1.48,1.44-2.57,1.97-3.26
		c0.35-0.53,0.99-0.76,1.93-0.68c0.94,0.08,1.9,0.35,2.89,0.83c0.99,0.48,1.89,1.09,2.68,1.84c0.79,0.75,1.22,1.53,1.28,2.35
		c-0.58,0.22-1.2,0.82-1.83,1.8c-0.64,0.98-1.31,2.19-2.02,3.63c-0.71,1.44-1.43,3.05-2.16,4.83
		C649.32,326.95,648.63,328.78,647.99,330.65L647.99,330.65z M625.13,321.59c-0.13,0.64,0.07,0.88,0.59,0.74
		c0.52-0.14,1.2-0.53,2.02-1.16c0.83-0.63,1.67-1.45,2.54-2.47c0.87-1.01,1.56-2.04,2.09-3.07c0.05-0.35-0.02-0.62-0.2-0.8
		c-0.19-0.18-0.43-0.18-0.73,0c-0.21,0.1-0.53,0.31-0.98,0.65c-0.45,0.34-0.96,0.79-1.54,1.35c-0.58,0.56-1.2,1.25-1.87,2.06
		C626.37,319.72,625.73,320.61,625.13,321.59L625.13,321.59z M583.6,342.11c2.19-3.4,4.39-6.74,6.59-10.03
		c2.2-3.29,4.4-6.64,6.59-10.03c-0.17-0.46-0.29-0.71-0.38-0.77c-0.08-0.06-0.27-0.07-0.55-0.03c-3.49,1.86-6.31,4.57-8.48,8.13
		c-2.16,3.56-3.75,7.58-4.76,12.04c0.04,0.27,0.09,0.5,0.17,0.7C582.96,342.58,583.23,342.57,583.6,342.11L583.6,342.11z
		 M566.13,346.4c0.18-0.5,0.3-1.07,0.37-1.7c0.07-0.63,0-1.13-0.2-1.52c-1.09,1.32-2.07,2.59-2.95,3.81
		c-0.88,1.22-1.64,2.32-2.27,3.3c-0.64,0.98-1.11,1.79-1.42,2.41c-0.31,0.63-0.44,1.01-0.4,1.14c0.32-0.11,0.79-0.37,1.4-0.76
		c0.61-0.39,1.25-0.91,1.92-1.56s1.33-1.4,1.97-2.28C565.19,348.37,565.72,347.42,566.13,346.4L566.13,346.4z M540.01,333.47
		c-0.13,0.64,0.07,0.88,0.59,0.74c0.52-0.14,1.2-0.53,2.02-1.16c0.83-0.63,1.67-1.45,2.54-2.47c0.87-1.01,1.56-2.04,2.09-3.07
		c0.05-0.35-0.02-0.62-0.2-0.8c-0.19-0.18-0.43-0.18-0.73,0c-0.21,0.1-0.53,0.31-0.98,0.65c-0.45,0.34-0.96,0.79-1.54,1.35
		c-0.58,0.56-1.2,1.25-1.87,2.06C541.26,331.59,540.62,332.49,540.01,333.47L540.01,333.47z M457.79,309.21
		c-0.33-1.05-1.08-2.1-2.25-3.14c-1.17-1.04-2.39-1.95-3.64-2.74c-1.26-0.79-2.37-1.39-3.34-1.8c-0.97-0.41-1.42-0.52-1.35-0.33
		c0.61,1.97,0.83,4.29,0.67,6.96c-0.16,2.67-0.58,5.56-1.24,8.67c-0.66,3.11-1.48,6.39-2.45,9.82c-0.97,3.43-1.94,6.88-2.89,10.34
		c-0.96,3.46-1.81,6.86-2.54,10.19c-0.74,3.33-1.2,6.45-1.4,9.36c0.1,0.6,0.27,1.34,0.49,2.2c0.23,0.86,0.52,1.73,0.87,2.61
		c0.35,0.88,0.75,1.75,1.19,2.61c0.44,0.86,0.9,1.61,1.37,2.23c-2.07,1.11-4.12,1.74-6.16,1.89c-2.03,0.15-3.82-0.07-5.37-0.64
		c-1.54-0.57-2.75-1.47-3.63-2.69c-0.87-1.22-1.19-2.63-0.93-4.25c-1.11,4.21-1.5,7.9-1.17,11.08c0.14,1.35,0.42,2.65,0.85,3.9
		c0.43,1.24,1.12,2.33,2.07,3.26c0.95,0.93,2.16,1.62,3.62,2.07c1.47,0.45,3.32,0.51,5.57,0.2c5.16-0.79,10.13-2.31,14.93-4.55
		c4.8-2.25,9.31-5.02,13.53-8.32c4.23-3.3,8.12-7,11.69-11.11c3.57-4.1,6.68-8.41,9.33-12.94c2.65-4.52,4.83-9.12,6.52-13.78
		c1.69-4.66,2.78-9.18,3.26-13.53c0.48-4.36,0.28-8.48-0.58-12.38c-0.87-3.9-2.47-7.29-4.81-10.19c-2.76-3.53-5.71-6.21-8.87-8.03
		c-3.16-1.83-6.37-2.99-9.64-3.49c-3.27-0.5-6.55-0.49-9.84,0.03c-3.29,0.53-6.41,1.36-9.38,2.49c-2.97,1.14-5.72,2.46-8.24,3.98
		c-2.52,1.52-4.69,3.02-6.5,4.51c-1.81,1.49-3.18,2.85-4.12,4.08c-0.94,1.23-1.31,2.1-1.12,2.63c-0.15,2.22-0.16,4.24-0.02,6.08
		c0.09,1.57,0.41,3.08,0.96,4.55c0.54,1.47,1.4,2.4,2.57,2.78c-0.2-0.86,0.37-2.35,1.71-4.46c1.34-2.11,3.2-4.39,5.59-6.85
		c2.39-2.46,5.19-4.86,8.41-7.2c3.22-2.34,6.61-4.13,10.17-5.38c3.56-1.25,7.16-1.74,10.81-1.46c3.64,0.28,7.09,1.77,10.33,4.48
		c1.84,2.69,2.76,6.1,2.74,10.22c-0.02,4.12-0.77,8.59-2.26,13.39c-1.49,4.81-3.61,9.72-6.35,14.74c-2.74,5.02-5.9,9.78-9.47,14.3
		c-3.57,4.51-7.44,8.52-11.62,12.02c-4.18,3.5-8.43,6.14-12.74,7.9c0.8-3.89,1.77-7.78,2.9-11.68c1.13-3.9,2.32-7.69,3.56-11.36
		c1.24-3.68,2.45-7.21,3.62-10.6c1.17-3.39,2.15-6.53,2.96-9.42c0.81-2.89,1.38-5.46,1.73-7.71
		C458.24,312.51,458.2,310.66,457.79,309.21z"/>
	<path class="st0" d="M497.95,82.07l-12.02,11c-2.17,2.01-3.89,3.81-5.92,5.96l-5.72,6.14c-4.42,4.62-11.23,14.07-15.19,19.98
		c-1.58,2.35-3.07,5.11-4.65,7.21c-3.74-5.63-7.91-11.57-11.2-15.73c-12.09-15.3-25.57-28.47-42.96-39.25
		c-23.93-14.84-54.74-24.32-90.08-21.32c-22.62,1.92-44.37,7.12-62.23,19.03c-17.01,11.35-29.29,26.15-38.01,44.83
		c-9.66,20.7-9.73,39.01-9.83,49.67c2.09-11.29,10.35-38.21,16.48-47.77c24.77-38.66,67.73-58.41,118.06-52.21
		c46.84,5.77,80.4,35.12,101.72,70.72c3.37,5.64,6.97,12.25,9.66,19.1l8.24,20.66c5.4-8.21,7.77-24.64,25.92-48.46
		c35.51-46.61,94.39-71.53,158.93-62.49c90.43,12.66,131.98,94.63,110.33,177.06c-5.69,21.65-13.36,35.46-24.4,49.98
		c-2.78,3.66-5.36,6.83-8.41,10.29c-5.88,6.67-11.68,13.13-18.17,19.27c-5.5,5.2-13.55,13.13-19.45,17.99l-10.01,8.7
		c-30.98,25.71-52.75,41.32-85.29,64.42c-43.64,30.98-89.42,59.82-129.82,94.77c-5.2,4.5-14.53,13.32-18.32,19.06
		c-3.92-2.75-7.78-6.15-11.57-9.14l-34.55-28.91c-52.58-47.62-85.77-79.64-122.68-132.1c1.47,7.49,19.25,31.81,24.06,38.11
		c2.36,3.09,4.29,5.91,6.63,8.9c2.42,3.08,4.48,5.7,6.84,8.68c7.91,9.97,13.88,16.36,21.56,25.45c2.46,2.92,4.73,5.28,7.32,8.2
		c5.09,5.73,9.74,10.81,15.09,16.41l15.19,15.86c2.62,2.76,14.31,14.12,15.3,16.05c2.17,0.82,12.27,11.99,14.89,14.47l30.04,28.39
		c5.2,4.15,10.58,9.75,15.96,13.35c0.69-1.02,1.54-2.56,2.3-3.35c9.41-22.03,74.94-63.32,100.28-79.35
		c25-15.82,47.94-31.61,72.17-47.43c19.76-12.9,61.1-43.25,77.4-57.27l23.45-20.82c4.34-3.94,18-18.02,22.11-23.08
		c2.24-2.76,4.33-5.06,6.63-7.98c8.42-10.7,20.25-18.89,26.78-33.64c19.69-44.47,25.04-102.73,2.8-148.27
		c-3.49-7.15-13.35-23.55-17.47-29.73c-7.01-10.52-18.41-23.7-28.25-31.55c-24.92-19.9-49.15-30.58-80.84-35.02
		c-23.87-3.34-51.38-1.96-74.44,3.21C546.95,45.85,521.18,61.4,497.95,82.07z"/>
	<path class="st1" d="M573.64,268.76c-2.01,2.77-4.08,5.64-6.22,8.6c-2.14,2.97-4.08,5.73-5.8,8.28c-1.72,2.55-3.04,4.72-3.94,6.51
		c-0.91,1.79-1.15,2.83-0.73,3.13c0.42,0.3,1.35-0.1,2.77-1.19c1.43-1.09,2.51-2.34,3.24-3.74c0.66-1.04,1.46-2.4,2.41-4.07
		c0.95-1.67,1.9-3.49,2.84-5.46c0.94-1.97,1.89-4,2.84-6.09C572.01,272.63,572.87,270.64,573.64,268.76L573.64,268.76z M567.26,246
		c3.79-5.86,7.58-11.64,11.39-17.33c3.8-5.69,7.6-11.46,11.39-17.33c-0.29-0.79-0.51-1.23-0.65-1.33c-0.14-0.1-0.46-0.11-0.96-0.04
		c-6.02,3.21-10.9,7.89-14.64,14.05c-3.73,6.15-6.47,13.09-8.22,20.8c0.07,0.46,0.16,0.87,0.29,1.2
		C566.15,246.81,566.62,246.8,567.26,246L567.26,246z M463.32,234.54c-0.22,1.1,0.12,1.52,1.02,1.28c0.9-0.24,2.07-0.91,3.49-2
		c1.43-1.09,2.89-2.51,4.38-4.26c1.5-1.75,2.7-3.52,3.6-5.3c0.09-0.61-0.03-1.06-0.35-1.37c-0.32-0.31-0.74-0.31-1.25,0
		c-0.36,0.17-0.92,0.54-1.7,1.13c-0.78,0.58-1.67,1.36-2.67,2.33c-1,0.97-2.08,2.16-3.23,3.56
		C465.47,231.3,464.37,232.85,463.32,234.54L463.32,234.54z M413.98,241.42c-0.22,1.1,0.12,1.53,1.02,1.28
		c0.9-0.24,2.07-0.91,3.49-2c1.43-1.09,2.89-2.51,4.38-4.26c1.5-1.75,2.7-3.52,3.6-5.3c0.09-0.61-0.03-1.06-0.35-1.37
		c-0.32-0.31-0.74-0.31-1.26,0c-0.36,0.17-0.92,0.54-1.7,1.13c-0.78,0.58-1.67,1.36-2.67,2.33c-1,0.97-2.08,2.16-3.23,3.56
		C416.13,238.19,415.03,239.74,413.98,241.42L413.98,241.42z M348.25,300.21c-2.01,2.77-4.08,5.64-6.22,8.6
		c-2.14,2.97-4.08,5.73-5.8,8.28c-1.72,2.55-3.04,4.72-3.94,6.51c-0.91,1.79-1.15,2.83-0.73,3.12c0.42,0.3,1.35-0.1,2.77-1.19
		c1.43-1.09,2.51-2.34,3.24-3.74c0.66-1.04,1.46-2.4,2.41-4.07c0.95-1.67,1.9-3.5,2.84-5.46c0.94-1.97,1.89-4,2.84-6.09
		C346.62,304.08,347.48,302.1,348.25,300.21L348.25,300.21z M341.87,277.45c3.79-5.86,7.58-11.64,11.39-17.33
		c3.8-5.69,7.6-11.46,11.39-17.33c-0.29-0.79-0.51-1.23-0.65-1.33c-0.14-0.1-0.46-0.11-0.96-0.04c-6.02,3.21-10.9,7.89-14.64,14.05
		c-3.73,6.15-6.47,13.08-8.22,20.8c0.07,0.46,0.16,0.87,0.29,1.2C340.76,278.26,341.22,278.25,341.87,277.45L341.87,277.45z
		 M300.54,257.25c-0.22,1.1,0.12,1.53,1.02,1.28c0.9-0.24,2.07-0.91,3.49-2c1.43-1.09,2.89-2.51,4.38-4.26
		c1.5-1.75,2.7-3.52,3.6-5.3c0.09-0.6-0.03-1.06-0.35-1.37c-0.32-0.31-0.74-0.31-1.26,0c-0.36,0.17-0.92,0.54-1.7,1.13
		c-0.78,0.58-1.67,1.36-2.67,2.33c-1,0.97-2.08,2.16-3.23,3.56C302.69,254.02,301.59,255.57,300.54,257.25L300.54,257.25z
		 M229.85,274.23c-1.8,4.16-3.59,8.53-5.34,13.11c-1.76,4.57-3.34,8.97-4.76,13.2c-1.41,4.23-2.56,8.12-3.44,11.68
		c-0.88,3.56-1.32,6.47-1.32,8.72c0.01,0.59,0.17,0.75,0.49,0.47c1.15-1.7,2.54-3.94,4.18-6.72c1.64-2.78,3.25-5.76,4.84-8.95
		c1.59-3.19,3.07-6.47,4.43-9.87c1.36-3.39,2.36-6.55,3-9.49c0.64-2.93,0.85-5.48,0.62-7.64
		C232.31,276.58,231.42,275.08,229.85,274.23L229.85,274.23z M193.79,205.11c1.42,1.58,2.89,3.45,4.42,5.61
		c1.53,2.16,2.97,4.42,4.31,6.78c1.34,2.36,2.56,4.74,3.66,7.14c1.1,2.4,1.85,4.57,2.26,6.53c1.93,7.2,2.17,13.92,0.72,20.17
		c-1.45,6.25-4,12-7.65,17.25c-3.65,5.25-8.12,9.97-13.43,14.14c-5.3,4.18-10.89,7.77-16.78,10.79c-5.89,3.01-11.77,5.47-17.66,7.35
		c-5.89,1.89-11.16,3.16-15.83,3.81c-2.96,0.18-6.44-1.18-10.44-4.06c-3.99-2.88-7.91-6.54-11.74-10.99
		c-3.12,6.84-5.95,13.87-8.5,21.1c-2.55,7.23-4.56,14.09-6.03,20.58c-1.47,6.49-2.21,12.46-2.23,17.92
		c-0.02,5.46,1.04,9.81,3.19,13.07c-1.09,0.15-2.65-0.67-4.67-2.46c-2.02-1.79-4.01-3.92-5.96-6.37c-1.95-2.45-3.7-5-5.25-7.63
		c-1.55-2.63-2.42-4.64-2.62-6.04c-0.48-3.85-0.4-8.21,0.25-13.11c0.65-4.89,1.69-10.05,3.14-15.46c1.45-5.42,3.21-10.97,5.29-16.65
		c2.08-5.68,4.3-11.33,6.67-16.94c2.37-5.61,4.81-11.01,7.33-16.23c2.51-5.21,4.98-10,7.39-14.37c2.41-4.37,4.64-8.23,6.68-11.6
		c2.05-3.37,3.77-5.98,5.18-7.84c0.82-1.18,2.31-1.3,4.49-0.36c2.18,0.94,4.34,2.33,6.48,4.16c2.14,1.83,3.95,3.84,5.43,6
		c1.48,2.16,1.98,3.87,1.5,5.12c-0.74-0.02-1.99,1.11-3.77,3.37c-1.78,2.26-3.86,5.4-6.24,9.41c-2.39,4.01-4.97,8.67-7.77,13.98
		c-2.79,5.31-5.59,10.95-8.4,16.91c1.62,0.72,3.27,1.29,4.94,1.71c1.67,0.42,3.37,0.57,5.1,0.44c4.3-0.24,8.87-1.18,13.7-2.8
		c4.83-1.62,9.69-3.75,14.57-6.39c4.88-2.64,9.62-5.7,14.24-9.19c4.61-3.49,8.84-7.19,12.67-11.1c3.83-3.91,7.12-7.96,9.86-12.13
		c2.74-4.18,4.65-8.35,5.71-12.53c4.53-16.87-3.56-28.43-24.26-34.67c-7.63-2.26-15.72-3.44-24.28-3.55
		c-8.56-0.11-17.01,0.71-25.34,2.47c-8.34,1.76-16.23,4.37-23.67,7.84c-7.44,3.47-13.84,7.65-19.19,12.55
		c-5.35,4.9-9.36,10.43-12.04,16.62c-2.68,6.18-3.42,12.87-2.23,20.05c0.34,2.32,1.12,4.85,2.33,7.59c1.22,2.73,3.09,5.11,5.61,7.13
		c-2.9-0.78-5.62-2.27-8.16-4.46c-2.54-2.19-4.75-4.73-6.65-7.61c-1.9-2.88-3.4-5.96-4.51-9.24c-1.11-3.28-1.69-6.4-1.74-9.36
		c-0.31-5.65,0.86-11.18,3.51-16.58c2.65-5.41,6.31-10.48,10.99-15.23c4.67-4.74,10.23-9.01,16.66-12.82
		c6.43-3.8,13.33-6.9,20.71-9.29c7.37-2.39,15.02-3.96,22.95-4.71c7.93-0.75,15.75-0.45,23.46,0.91c7.71,1.35,15.13,3.9,22.27,7.65
		C181.51,193.25,187.98,198.45,193.79,205.11L193.79,205.11z M576.04,260.42c1.66-4.26,3.06-8.1,4.2-11.52
		c1.14-3.42,2.21-6.74,3.21-9.96c1-3.22,2.08-6.52,3.24-9.88c1.16-3.36,2.56-7.06,4.21-11.08c0,0-0.63,0.98-1.89,2.93
		c-1.26,1.96-2.8,4.3-4.61,7.04c-1.81,2.74-3.66,5.58-5.55,8.51c-1.89,2.93-3.44,5.31-4.65,7.14c-1.38,2.21-2.69,4.23-3.95,6.06
		c-1.25,1.84-3.01,2.26-5.25,1.27c-2.37-1.33-4.62-3.3-6.73-5.91c-1.34-1.66-2.49-3.31-3.45-4.95c-1.99,3.26-4.03,6.48-6.09,9.66
		c-2.33,3.59-4.53,6.77-6.58,9.54c-2.06,2.78-3.86,5.04-5.4,6.8c-1.55,1.76-2.76,2.58-3.63,2.46c-1.14,0.04-2.4-0.14-3.8-0.54
		c-1.4-0.4-2.8-1-4.2-1.82c-1.4-0.81-2.7-1.73-3.91-2.74c-1.21-1.02-2.18-2.07-2.89-3.15c-0.9-1.3-0.86-3.88,0.11-7.75
		c0.97-3.87,2.36-8.24,4.16-13.12c1.8-4.88,3.84-9.81,6.12-14.81c2.28-5,4.33-9.29,6.14-12.86c-2.2,1.97-4.52,4.45-6.96,7.46
		c-2.44,3.01-4.86,6.22-7.25,9.64c-2.39,3.42-4.72,6.88-6.97,10.4c-2.25,3.52-4.27,6.82-6.05,9.91c-1.78,3.09-3.25,5.85-4.39,8.26
		c-1.15,2.41-1.81,4.22-1.99,5.43c-1.16-0.31-2.56-0.92-4.2-1.81c-1.64-0.9-3.17-1.99-4.58-3.27c-1.42-1.28-2.59-2.63-3.53-4.04
		c-0.94-1.41-1.26-2.85-0.97-4.31c0.38-2.1,0.9-4.29,1.56-6.57c-2.42,3.01-4.93,5.89-7.53,8.65c-3.6,3.82-7.21,7.2-10.83,10.14
		c-3.62,2.94-6.88,4.84-9.8,5.72c-1.51,0.45-3.09,0.55-4.75,0.31c-1.66-0.24-3.25-0.73-4.78-1.47c-2.37-1.33-4.62-3.3-6.73-5.91
		c-2.11-2.61-3.75-5.2-4.91-7.76c-0.25-0.66-0.41-1.39-0.51-2.19c-2.27,2.79-4.62,5.47-7.04,8.05c-3.6,3.82-7.21,7.2-10.83,10.14
		c-3.62,2.94-6.88,4.84-9.8,5.72c-1.51,0.45-3.09,0.55-4.75,0.31c-1.66-0.24-3.25-0.73-4.78-1.47c-2.37-1.33-4.62-3.3-6.73-5.91
		c-2.11-2.61-3.75-5.2-4.91-7.76c-0.16-0.43-0.29-0.89-0.38-1.37c-1.34,1.75-2.68,3.48-4.01,5.19c-2.91,3.73-5.62,7.13-8.14,10.21
		c-2.52,3.08-4.47,5.43-5.86,7.04c-1.31,4.09-2.76,8.3-4.35,12.61c-1.59,4.31-3.24,8.54-4.95,12.69c-1.7,4.15-3.37,8.06-4.99,11.72
		c-1.62,3.66-3.14,6.84-4.55,9.53c-1.25,2.55-2.5,4.56-3.73,6.03c-1.23,1.48-2.35,2.61-3.37,3.4c-1.01,0.79-2.02,1.26-3.01,1.4
		c-0.99,0.14-1.93,0.15-2.81,0.04c-1.9-0.33-4.11-1.44-6.64-3.34c-2.53-1.9-4.65-4.45-6.35-7.65c-0.62-1.1-0.27-2.93,1.03-5.48
		c1.3-2.55,3.1-5.47,5.39-8.75s4.92-6.76,7.9-10.44c2.98-3.68,5.85-7.13,8.63-10.36c1.66-4.26,3.06-8.1,4.2-11.52
		c1.14-3.42,2.21-6.74,3.21-9.96c1-3.22,2.08-6.52,3.25-9.88c1.16-3.36,2.56-7.06,4.21-11.08c0,0-0.63,0.98-1.89,2.93
		c-1.26,1.95-2.8,4.3-4.61,7.04c-1.81,2.74-3.66,5.58-5.55,8.51c-1.89,2.93-3.44,5.31-4.65,7.14c-1.38,2.21-2.69,4.23-3.95,6.06
		c-1.25,1.83-3.01,2.26-5.25,1.27c-2.37-1.33-4.62-3.3-6.73-5.91c-2.11-2.61-3.75-5.2-4.91-7.76c-0.42-1.13-0.62-2.46-0.6-3.97
		c-2.62,3.31-5.35,6.46-8.19,9.47c-3.6,3.82-7.21,7.2-10.83,10.14c-3.62,2.94-6.88,4.84-9.8,5.72c-1.51,0.45-3.09,0.55-4.75,0.31
		c-1.66-0.24-3.25-0.73-4.78-1.47c-2.37-1.33-4.62-3.3-6.73-5.91c-1.64-2.02-2.99-4.03-4.05-6.02c-2.06,2.69-4.14,5.27-6.22,7.72
		c-2.51,2.96-4.81,5.5-6.9,7.63c-2.09,2.13-3.9,3.66-5.44,4.58c-1.54,0.93-2.6,1.02-3.19,0.27c-1.16-0.31-2.55-0.89-4.17-1.73
		c-1.62-0.84-3.1-1.82-4.46-2.94c-1.35-1.11-2.49-2.35-3.41-3.7c-0.92-1.35-1.23-2.76-0.94-4.23c0.77-4.14,2.07-8.88,3.91-14.24
		c1.46-4.26,3.1-8.6,4.93-13.02c-1.88,1.31-3.92,2.67-6.11,4.11c-2.52,1.66-5.07,3.38-7.65,5.16c-2.58,1.78-4.97,3.36-7.18,4.74
		c2,1.74,3.22,4.11,3.66,7.14c0.44,3.02,0.35,6.32-0.26,9.91c-0.61,3.58-1.59,7.28-2.96,11.08c-1.36,3.81-2.79,7.44-4.27,10.91
		c-1.49,3.47-2.96,6.55-4.42,9.24c-1.46,2.69-2.56,4.74-3.29,6.15c-1.01,1.8-2.15,2.94-3.44,3.41c-1.29,0.48-3.13-0.13-5.53-1.81
		c-0.85-0.59-1.79-1.44-2.82-2.54c-1.03-1.1-1.97-2.3-2.82-3.61c-0.85-1.3-1.56-2.66-2.13-4.06c-0.57-1.4-0.82-2.7-0.74-3.9
		c0.2-5.12,1.11-10.77,2.76-16.92c1.64-6.16,3.7-12.4,6.16-18.73c2.47-6.33,5.22-12.52,8.26-18.58c3.04-6.06,6-11.54,8.89-16.45
		c2.89-4.91,5.58-9.02,8.06-12.33c2.49-3.31,4.47-5.37,5.95-6.16c1.12-0.63,2.67-0.7,4.63-0.2c1.96,0.5,3.84,1.27,5.64,2.33
		c1.8,1.05,3.32,2.32,4.54,3.81c1.23,1.49,1.68,2.91,1.34,4.26c-1.14-0.55-2.7-0.1-4.67,1.36c-1.97,1.46-4.14,3.63-6.53,6.51
		c-2.38,2.88-4.85,6.4-7.39,10.54c-2.54,4.15-4.96,8.64-7.25,13.46c5.13-3.09,9.6-5.9,13.41-8.45c2.78-1.86,5.45-3.45,8.01-4.77
		c2.29-5.29,4.71-10.51,7.23-15.67c2.68-5.47,5.27-10.4,7.78-14.78c2.51-4.38,4.77-7.96,6.77-10.73c2.01-2.77,3.51-4.34,4.52-4.72
		c1.86-0.62,3.83-0.65,5.91-0.11c2.08,0.54,3.94,1.32,5.57,2.34c1.63,1.02,2.88,2.06,3.74,3.12c0.86,1.06,1.06,1.81,0.59,2.23
		c-1.22-0.19-2.94,1.24-5.16,4.28c-2.22,3.04-4.64,6.96-7.25,11.77c-2.61,4.81-5.31,10.17-8.09,16.07
		c-2.78,5.9-5.32,11.68-7.62,17.33c-2.3,5.66-4.23,10.82-5.8,15.48c-1.57,4.66-2.43,8.19-2.59,10.59c0.18,1.04,0.93,1.03,2.26-0.05
		c1.33-1.07,3.04-2.8,5.15-5.16c2.1-2.37,4.45-5.21,7.03-8.54c0.87-1.11,1.73-2.24,2.59-3.38c-0.17-1.5-0.08-3.23,0.27-5.2
		c0.55-3.04,1.59-6.24,3.12-9.59c1.53-3.36,3.45-6.65,5.76-9.87c2.31-3.23,4.8-6.03,7.47-8.42c1.87-1.45,3.55-2.54,5.06-3.28
		c1.5-0.74,3.06-1.05,4.68-0.92c1.62,0.13,3.39,0.68,5.32,1.66c1.93,0.98,4.23,2.4,6.91,4.28c0.71,0.49,1.15,1.06,1.33,1.68
		c0.18,0.63,0.35,1.17,0.52,1.62c1.63,1.31,2.93,2.41,3.88,3.28c0.95,0.87,1.63,1.88,2.05,3c0.2,1.39-0.3,3.07-1.52,5.01
		c-1.21,1.95-2.69,3.81-4.44,5.6c-1.74,1.78-3.54,3.22-5.38,4.31c-1.85,1.09-3.3,1.47-4.36,1.14c-6.11-2.11-9.22-4.58-9.33-7.41
		c-0.72,1.17-1.5,2.52-2.34,4.06c-0.84,1.54-1.64,3.13-2.39,4.78c-0.75,1.65-1.36,3.24-1.83,4.79c-0.47,1.55-0.7,2.91-0.68,4.1
		c0.03,4.03,1.36,6.3,4.01,6.82c2.65,0.52,6.19-0.78,10.63-3.89c4.44-3.11,9.65-8.02,15.64-14.72c2.5-2.8,5.07-5.92,7.7-9.36
		c0.51-1.56,1.14-3.15,1.88-4.78c1.53-3.35,3.45-6.65,5.76-9.87c2.31-3.23,4.8-6.03,7.47-8.42c1.87-1.45,3.55-2.54,5.06-3.28
		c1.5-0.74,3.06-1.05,4.68-0.92c1.62,0.13,3.39,0.68,5.32,1.66c1.93,0.98,4.23,2.4,6.91,4.28c0.42,0.3,0.74,0.73,0.95,1.29
		c0.21,0.56,0.4,1.07,0.56,1.52c0.17,0.45,0.4,0.66,0.7,0.61c0.3-0.04,0.77-0.46,1.41-1.26c0.84-0.83,1.51-1.72,1.99-2.68
		c0.48-0.96,1.02-1.77,1.6-2.45c0.69-0.69,1.54-1.28,2.56-1.78c1.02-0.5,2.97,0.06,5.87,1.67c1.57,0.85,2.69,1.76,3.36,2.73
		c0.67,0.97,1.07,1.9,1.18,2.77c0.11,0.87,0.04,1.74-0.21,2.61c-0.25,0.87-0.48,1.61-0.67,2.23c-0.95,3.93-2.35,8.21-4.18,12.85
		c-1.84,4.64-3.75,9.65-5.73,15.03c1.93-2.4,4.26-5.22,6.99-8.44c2.67-3.15,5.4-6.46,8.2-9.91c0.55-3.02,1.59-6.2,3.11-9.54
		c1.53-3.35,3.45-6.65,5.76-9.87c2.31-3.23,4.8-6.03,7.47-8.42c1.87-1.45,3.55-2.54,5.06-3.28c1.5-0.74,3.06-1.05,4.68-0.92
		c1.62,0.13,3.39,0.68,5.32,1.66c1.93,0.98,4.23,2.4,6.91,4.28c0.71,0.49,1.15,1.06,1.33,1.68c0.18,0.63,0.35,1.17,0.52,1.62
		c1.64,1.31,2.93,2.41,3.88,3.28c0.95,0.88,1.63,1.88,2.05,3c0.2,1.39-0.3,3.07-1.52,5.01c-1.21,1.95-2.69,3.81-4.44,5.6
		c-1.74,1.78-3.54,3.22-5.38,4.31c-1.85,1.09-3.3,1.47-4.36,1.14c-6.11-2.11-9.22-4.58-9.32-7.41c-0.72,1.17-1.5,2.52-2.34,4.06
		c-0.84,1.54-1.64,3.13-2.39,4.78c-0.75,1.65-1.36,3.24-1.83,4.79c-0.47,1.55-0.7,2.91-0.68,4.1c0.03,4.03,1.36,6.3,4.01,6.82
		c2.65,0.52,6.19-0.77,10.63-3.88c4.44-3.11,9.66-8.02,15.64-14.72c1.83-2.05,3.7-4.28,5.61-6.68c0.6-2.51,1.51-5.12,2.75-7.83
		c1.53-3.35,3.45-6.65,5.76-9.87c2.31-3.23,4.8-6.03,7.47-8.42c1.87-1.45,3.55-2.54,5.06-3.28c1.5-0.74,3.06-1.05,4.68-0.92
		c1.62,0.13,3.39,0.68,5.32,1.66c1.93,0.98,4.23,2.4,6.91,4.28c0.71,0.49,1.15,1.06,1.33,1.68c0.18,0.63,0.35,1.17,0.52,1.62
		c1.64,1.31,2.93,2.41,3.88,3.28c0.95,0.88,1.63,1.88,2.05,3c0.2,1.39-0.3,3.07-1.52,5.01c-1.21,1.95-2.69,3.81-4.44,5.6
		c-1.74,1.78-3.54,3.22-5.38,4.31c-1.85,1.09-3.3,1.47-4.36,1.14c-6.11-2.11-9.22-4.58-9.32-7.41c-0.72,1.17-1.5,2.52-2.34,4.06
		c-0.84,1.54-1.64,3.13-2.39,4.78c-0.75,1.65-1.36,3.24-1.83,4.79c-0.47,1.55-0.7,2.91-0.68,4.1c0.03,4.03,1.36,6.3,4.01,6.82
		c2.65,0.52,6.19-0.78,10.63-3.88c4.44-3.11,9.66-8.02,15.64-14.72c3.05-3.41,6.2-7.31,9.46-11.68c0.22-0.55,0.44-1.1,0.67-1.64
		c1.32-3.21,2.66-6.09,4.01-8.65c1.35-2.56,2.49-4.44,3.4-5.63c0.6-0.91,1.71-1.31,3.33-1.18c1.62,0.13,3.28,0.61,5,1.44
		c1.72,0.83,3.26,1.89,4.62,3.18c1.37,1.29,2.1,2.64,2.2,4.05c-1.01,0.38-2.06,1.41-3.16,3.11c-1.1,1.69-2.26,3.78-3.48,6.27
		c-1.22,2.48-2.47,5.26-3.73,8.35c-1.26,3.08-2.45,6.24-3.55,9.48c1.1-2.41,2.6-5.19,4.51-8.36c1.91-3.17,4.05-6.43,6.41-9.79
		c2.37-3.35,4.81-6.63,7.34-9.83c2.53-3.2,4.89-5.99,7.1-8.37c2.2-2.38,4.16-4.23,5.87-5.53c1.71-1.31,2.97-1.72,3.77-1.24
		c2.03,1.26,4.1,2.89,6.21,4.91c2.1,2.02,3.4,3.82,3.88,5.42c0.42,1.13,0.46,2.51,0.13,4.16c-0.33,1.65-0.9,3.65-1.69,6.02
		c-1.83,5.23-3.55,9.89-5.18,13.97c-1.63,4.08-2.98,7.56-4.06,10.44c-1.08,2.88-1.85,5.09-2.33,6.64c-0.47,1.55-0.59,2.36-0.35,2.45
		c0.56,0.4,1.63-0.26,3.19-1.96c1.57-1.7,3.42-4.09,5.58-7.18c2.15-3.09,4.45-6.61,6.91-10.57l3.02-4.87c-0.48-1.8-0.47-4.02,0-6.66
		c0.55-3.04,1.59-6.24,3.12-9.59c1.53-3.35,3.45-6.65,5.76-9.87c2.31-3.23,4.8-6.03,7.47-8.42c1.87-1.45,3.55-2.54,5.06-3.28
		c1.5-0.74,3.06-1.05,4.68-0.92c1.62,0.13,3.39,0.68,5.32,1.66c1.93,0.98,4.23,2.4,6.91,4.28c0.42,0.3,0.74,0.73,0.95,1.29
		c0.21,0.56,0.4,1.07,0.56,1.52c0.17,0.45,0.4,0.66,0.7,0.61c0.3-0.04,0.77-0.46,1.41-1.26c0.84-0.83,1.51-1.72,1.99-2.68
		c0.48-0.96,1.02-1.77,1.6-2.45c0.69-0.69,1.54-1.28,2.56-1.78c1.02-0.5,2.97,0.06,5.87,1.67c1.57,0.85,2.69,1.76,3.36,2.73
		c0.67,0.97,1.07,1.9,1.18,2.77c0.11,0.87,0.04,1.74-0.21,2.61c-0.25,0.87-0.48,1.61-0.67,2.23c-0.95,3.93-2.35,8.21-4.18,12.85
		c-1.84,4.64-3.75,9.65-5.73,15.03c1.93-2.4,4.26-5.22,6.99-8.44c2.66-3.15,5.4-6.46,8.2-9.91c0.55-3.02,1.59-6.2,3.11-9.54
		c1.53-3.35,3.45-6.65,5.76-9.87c2.31-3.23,4.8-6.03,7.47-8.42c1.87-1.45,3.55-2.54,5.06-3.28c1.5-0.74,3.06-1.05,4.68-0.92
		c1.62,0.13,3.39,0.68,5.32,1.66c1.93,0.98,4.23,2.4,6.91,4.28c0.71,0.49,1.15,1.06,1.33,1.68c0.18,0.63,0.35,1.17,0.52,1.62
		c1.64,1.31,2.93,2.41,3.88,3.28c0.95,0.88,1.63,1.88,2.05,3c0.2,1.39-0.3,3.07-1.52,5.01c-1.21,1.95-2.69,3.81-4.44,5.6
		c-1.74,1.78-3.54,3.22-5.38,4.31c-1.85,1.09-3.3,1.47-4.36,1.14c-6.11-2.11-9.22-4.58-9.33-7.41c-0.72,1.17-1.5,2.52-2.34,4.06
		c-0.84,1.54-1.64,3.13-2.39,4.78c-0.75,1.65-1.36,3.24-1.83,4.79c-0.47,1.55-0.7,2.91-0.68,4.1c0.03,4.03,1.36,6.3,4.01,6.82
		c2.65,0.52,6.19-0.78,10.63-3.88c4.44-3.11,9.65-8.02,15.64-14.72c2.28-2.55,4.62-5.38,7.02-8.47c1.69-4.78,3.61-9.67,5.75-14.65
		c2.42-5.61,4.97-11.16,7.65-16.63c2.68-5.47,5.27-10.4,7.78-14.78c2.51-4.38,4.77-7.96,6.77-10.73c2.01-2.77,3.52-4.34,4.53-4.72
		c1.86-0.62,3.83-0.65,5.91-0.11c2.08,0.54,3.94,1.32,5.57,2.33c1.63,1.02,2.88,2.06,3.74,3.12c0.86,1.06,1.06,1.81,0.59,2.23
		c-1.22-0.19-2.94,1.24-5.16,4.28c-2.22,3.04-4.64,6.96-7.25,11.77c-2.61,4.81-5.31,10.17-8.09,16.07
		c-2.78,5.9-5.32,11.68-7.62,17.33c-2.3,5.66-4.23,10.82-5.8,15.48c-1.57,4.66-2.43,8.19-2.59,10.59c0.18,1.04,0.93,1.03,2.26-0.05
		c1.33-1.07,3.04-2.8,5.14-5.16c2.1-2.37,4.45-5.21,7.03-8.54c2.59-3.32,5.15-6.76,7.71-10.32c2.55-3.56,5.01-7.01,7.38-10.37
		c2.37-3.35,4.35-6.27,5.94-8.74c1.47,0.03,1.89,0.6,1.25,1.69c-0.64,1.1-1.99,3.51-4.07,7.24c-1.67,2.84-3.62,5.96-5.87,9.35
		c-2.25,3.4-4.61,6.75-7.1,10.06c-2.49,3.31-4.98,6.45-7.5,9.4c-2.51,2.96-4.81,5.5-6.9,7.63c-2.09,2.13-3.9,3.66-5.44,4.58
		c-1.54,0.93-2.6,1.02-3.19,0.27c-1.16-0.31-2.55-0.89-4.17-1.73c-1.62-0.84-3.1-1.82-4.46-2.93c-1.35-1.12-2.49-2.35-3.41-3.7
		c-0.92-1.35-1.23-2.76-0.93-4.23c0.34-1.82,0.78-3.77,1.33-5.83c-1.91,2.29-3.87,4.5-5.89,6.64c-3.6,3.82-7.21,7.2-10.83,10.14
		c-3.62,2.94-6.88,4.84-9.8,5.72c-1.51,0.45-3.09,0.55-4.75,0.31c-1.66-0.24-3.25-0.73-4.78-1.47c-2.37-1.33-4.62-3.3-6.73-5.91
		c-2.11-2.61-3.75-5.2-4.91-7.76c-0.16-0.43-0.29-0.89-0.38-1.37c-1.34,1.75-2.68,3.48-4.01,5.19c-2.91,3.73-5.62,7.13-8.14,10.21
		c-2.52,3.08-4.47,5.43-5.86,7.04c-1.31,4.09-2.76,8.3-4.35,12.61c-1.59,4.31-3.24,8.54-4.95,12.69c-1.71,4.15-3.37,8.06-4.99,11.72
		c-1.62,3.66-3.14,6.84-4.55,9.53c-1.25,2.55-2.5,4.56-3.73,6.03c-1.23,1.48-2.35,2.61-3.37,3.4c-1.01,0.79-2.02,1.26-3.01,1.4
		c-0.99,0.14-1.93,0.15-2.81,0.04c-1.9-0.33-4.11-1.44-6.64-3.34c-2.53-1.9-4.65-4.45-6.36-7.65c-0.62-1.1-0.27-2.93,1.03-5.48
		c1.3-2.55,3.1-5.47,5.39-8.75c2.29-3.28,4.92-6.76,7.9-10.44C570.39,267.11,573.27,263.65,576.04,260.42L576.04,260.42z
		 M639.37,209.97c-0.22,1.1,0.12,1.52,1.02,1.28c0.9-0.24,2.07-0.91,3.49-2c1.43-1.09,2.89-2.51,4.38-4.26
		c1.5-1.75,2.7-3.52,3.6-5.3c0.09-0.61-0.03-1.06-0.35-1.37c-0.32-0.31-0.74-0.31-1.26,0c-0.36,0.17-0.92,0.54-1.7,1.13
		c-0.78,0.58-1.67,1.36-2.67,2.33c-1,0.97-2.08,2.16-3.23,3.56C641.52,206.74,640.42,208.29,639.37,209.97z"/>
	<path class="st1" d="M461.7,131.38c-1.58,2.35-3.07,5.11-4.65,7.21c-13.51-17.74-21.3-34.6-54.15-54.97
		c-23.93-14.84-52.05-23.61-87.38-20.6c-41.31,3.51-81.39,24.9-101.29,62.16c-4.42,8.27-13.76,32.61-13.86,43.27
		c2.09-11.29,12.74-30.82,18.87-40.38C244,89.39,286.95,69.65,337.29,75.85c46.84,5.77,80.4,35.12,101.72,70.72
		c9.57,20.21,12.74,30.49,17.91,49.61c16.04-34.61,16.05-36.55,38-65.66c35.51-46.61,82.31-64.17,146.85-55.14
		c90.43,12.66,131.98,94.63,110.33,177.06C733.21,324.29,640.4,384.7,586.35,423.07c-43.64,30.98-89.42,59.82-129.82,94.77
		c-5.2,4.5-14.53,13.32-18.32,19.06c-3.92-2.75-7.78-6.15-11.57-9.14l-34.55-28.91c-52.58-47.62-77.92-67.59-122.68-132.1
		c2.01,6.62,19.25,31.81,24.06,38.11c2.36,3.09,4.29,5.91,6.63,8.9c2.42,3.08,4.48,5.7,6.84,8.68c7.91,9.97,13.88,16.36,21.56,25.45
		c2.46,2.92,4.73,5.28,7.32,8.2c5.09,5.73,9.74,10.81,15.09,16.41l15.19,15.86c2.62,2.76,14.31,14.12,15.3,16.05
		c2.17,0.82,12.27,11.99,14.89,14.47l30.04,28.39c5.2,4.15,10.58,9.75,15.96,13.35c24.88-36.5,65.82-59.44,102.58-82.71
		c25-15.82,47.94-31.61,72.17-47.43c19.76-12.9,61.1-43.25,77.4-57.27c29.34-26.05,58.82-52.05,75.08-88.78
		c19.69-44.47,21.31-102.36-0.92-147.9c-3.49-7.15-6.79-13.04-10.91-19.23c-7.01-10.52-18.41-23.7-28.25-31.55
		c-12.56-10.03-21.36-15.88-36.63-22.71c-14.32-6.41-28.69-10.14-44.21-12.31c-23.87-3.34-51.05-3.82-74.11,1.35
		C526.61,62.82,488.36,91.62,461.7,131.38z"/>
	<path class="st0" d="M604.45,390.08c-0.05-0.56-0.16-1.33-0.3-2.3c-0.15-0.97-0.46-1.98-0.95-3.03c-0.49-1.05-1.22-2.06-2.2-3.04
		c-0.98-0.98-2.32-1.75-4.04-2.31c-0.04,0.05-0.2,0.3-0.49,0.75c-0.29,0.45-0.65,0.99-1.07,1.62c-0.42,0.63-0.88,1.31-1.37,2.04
		c-0.49,0.73-0.95,1.41-1.37,2.03c-0.42,0.63-0.78,1.16-1.07,1.59c-0.29,0.43-0.46,0.67-0.5,0.72c-0.35,0.41-0.76,0.77-1.23,1.08
		c-0.47,0.3-0.98,0.53-1.54,0.68c-0.56,0.15-1.16,0.19-1.81,0.13c-0.64-0.06-1.34-0.25-2.09-0.58c0.58-0.54,1.2-1.19,1.84-1.96
		c0.64-0.77,1.29-1.6,1.95-2.49c0.66-0.89,1.32-1.81,1.97-2.77c0.65-0.96,1.28-1.87,1.88-2.76c-1.15,0.41-2.07,0.8-2.77,1.17
		c-0.7,0.37-1.23,0.71-1.6,1.03c-0.37,0.31-0.59,0.61-0.68,0.88c-0.09,0.27-0.09,0.53-0.01,0.77c0.01,0.04-0.05,0-0.17-0.13
		c-0.12-0.13-0.25-0.29-0.37-0.48c-0.13-0.19-0.25-0.38-0.35-0.57c-0.11-0.19-0.13-0.33-0.08-0.43c0.15-0.36,0.39-0.71,0.71-1.06
		c0.32-0.34,0.76-0.67,1.32-1c0.57-0.33,1.27-0.67,2.11-1.01c0.84-0.35,1.86-0.7,3.05-1.08c0.87-1.42,1.73-2.84,2.59-4.27
		c0.86-1.43,1.66-2.82,2.42-4.18c0.75-1.36,1.42-2.66,2.01-3.9c0.59-1.24,1.03-2.4,1.34-3.47c0.31-1.07,0.45-2.02,0.42-2.86
		c-0.03-0.84-0.27-1.53-0.73-2.08c-0.54-0.63-1.35-0.98-2.41-1.06c-1.07-0.08-2.25,0.05-3.54,0.37c-1.29,0.33-2.62,0.83-3.98,1.51
		c-1.36,0.68-2.6,1.46-3.71,2.33c-1.12,0.87-2.04,1.82-2.76,2.83c-0.72,1.01-1.09,2.03-1.09,3.05c0,0.36,0.05,0.72,0.16,1.07
		l0.14-0.14c0.63-0.62,1.04-0.96,1.24-1.01c0.26-0.06,0.6-0.08,1-0.07c0.4,0.01,0.78,0.08,1.15,0.2c0.37,0.12,0.68,0.28,0.92,0.49
		c0.24,0.2,0.34,0.45,0.29,0.73c-0.51,0.22-1.44,1.03-2.78,2.43c0.87,0.66,2.05,1.26,3.54,1.8c0.43,0.14,0.84,0.25,1.22,0.33
		c0.38,0.07,0.73,0.12,1.04,0.14c0.31,0.03,0.56,0.04,0.74,0.05c0.18,0.01,0.29,0.01,0.31,0.01c-0.28,0.17-0.58,0.35-0.91,0.55
		c0.09,0.05,0.08,0.15-0.03,0.3c-0.17,0.23-0.58,0.72-1.23,1.47c-1.22,1.33-2.43,2.55-3.61,3.66c-1.19,1.11-2.42,2.25-3.72,3.4
		c-0.26,0.22-0.53,0.43-0.8,0.64c-0.27,0.21-0.53,0.41-0.8,0.61c-0.48,0.32-0.9,0.55-1.27,0.69c-0.37,0.14-0.72,0.2-1.07,0.18
		c-0.34-0.02-0.7-0.12-1.07-0.31c-0.37-0.19-0.79-0.46-1.27-0.83c-0.08-0.06-0.11-0.13-0.11-0.21c0-0.08,0-0.14,0.01-0.19
		c0-0.05-0.02-0.05-0.07-0.01c-0.05,0.04-0.17,0.14-0.35,0.31c-0.14,0.27-0.23,0.52-0.25,0.74c-0.03,0.22,0,0.45,0.08,0.69
		c-0.21-0.06-0.47-0.17-0.78-0.34c-0.31-0.16-0.6-0.36-0.87-0.6c-0.27-0.23-0.49-0.52-0.65-0.87c-0.06-0.13-0.1-0.26-0.13-0.4
		c-0.33,0.36-0.67,0.71-1,1.06c-0.69,0.72-1.34,1.37-1.93,1.93c-0.59,0.56-1.1,1.02-1.53,1.37c-0.43,0.36-0.73,0.52-0.92,0.5
		c-0.25,0.01-0.51-0.02-0.8-0.09c-0.28-0.07-0.56-0.19-0.82-0.35c-0.26-0.16-0.5-0.33-0.7-0.53c-0.21-0.2-0.36-0.4-0.46-0.62
		c-0.07-0.17-0.02-0.47,0.15-0.89c0.17-0.42,0.42-0.92,0.74-1.5c0.33-0.58,0.72-1.21,1.18-1.89c0.46-0.68,0.94-1.36,1.44-2.05
		c0.5-0.68,0.98-1.34,1.46-1.96c0.48-0.62,0.91-1.18,1.3-1.67c-0.87,0.62-1.75,1.36-2.66,2.22c-0.9,0.85-1.74,1.71-2.5,2.57
		c-0.77,0.86-1.43,1.65-1.99,2.38c-0.56,0.73-0.91,1.27-1.07,1.63c-0.24-0.06-0.49-0.16-0.78-0.32c-0.28-0.15-0.54-0.34-0.78-0.56
		c-0.23-0.22-0.42-0.47-0.57-0.76c-0.14-0.29-0.2-0.59-0.18-0.91c0.01-0.23,0.24-0.68,0.68-1.34c0.44-0.67,0.94-1.41,1.51-2.24
		c-0.21-0.06-0.54,0.09-0.99,0.45c-0.45,0.36-0.96,0.83-1.54,1.41c-0.58,0.58-1.17,1.23-1.79,1.94c-0.62,0.71-1.2,1.4-1.74,2.07
		c-0.54,0.67-1.02,1.27-1.42,1.8c-0.4,0.53-0.66,0.9-0.77,1.1c-0.23-0.06-0.51-0.17-0.81-0.35c-0.31-0.17-0.58-0.39-0.82-0.64
		c-0.24-0.25-0.42-0.52-0.55-0.79c-0.13-0.28-0.12-0.56,0.02-0.86c0.28-0.61,0.63-1.25,1.06-1.94c0.43-0.69,0.87-1.35,1.32-1.99
		c0.46-0.64,0.9-1.22,1.32-1.74c0.43-0.52,0.77-0.89,1.03-1.13c0.18-0.18,0.44-0.27,0.78-0.25c0.34,0.02,0.68,0.11,1.01,0.27
		c0.33,0.16,0.61,0.36,0.84,0.62c0.23,0.25,0.32,0.52,0.26,0.8c-0.24,0.08-0.52,0.29-0.85,0.63c-0.33,0.34-0.69,0.76-1.09,1.26
		c-0.4,0.5-0.81,1.06-1.25,1.68c-0.44,0.62-0.86,1.25-1.27,1.9c0.39-0.44,0.83-0.95,1.31-1.51c0.48-0.57,0.97-1.14,1.48-1.71
		c0.51-0.57,1.02-1.12,1.53-1.63c0.51-0.52,1-0.96,1.47-1.33c0.47-0.37,0.89-0.64,1.27-0.79c0.38-0.16,0.69-0.15,0.94,0.02
		c0.37,0.24,0.73,0.54,1.08,0.87c0.34,0.34,0.52,0.67,0.55,0.98c0.02,0.11-0.03,0.27-0.14,0.48c-0.11,0.21-0.23,0.42-0.37,0.65
		c-0.14,0.22-0.27,0.42-0.38,0.6c-0.11,0.17-0.17,0.3-0.19,0.37c0.54-0.71,1.21-1.48,2.01-2.31c0.8-0.83,1.6-1.58,2.38-2.26
		c0.78-0.68,1.49-1.22,2.12-1.63c0.64-0.41,1.05-0.55,1.25-0.41c0.37,0.24,0.74,0.56,1.09,0.96c0.35,0.39,0.54,0.75,0.56,1.07
		c0.03,0.22-0.03,0.5-0.19,0.83c-0.16,0.33-0.39,0.73-0.68,1.21c-0.67,1.05-1.29,1.98-1.86,2.8c-0.57,0.82-1.04,1.52-1.43,2.1
		c-0.39,0.58-0.67,1.02-0.85,1.33c-0.18,0.31-0.25,0.47-0.2,0.49c0.1,0.08,0.37-0.06,0.8-0.4c0.43-0.34,0.96-0.83,1.59-1.45
		c0.63-0.62,1.31-1.33,2.05-2.13l0.31-0.33c0.13-0.48,0.43-1.12,0.91-1.94c0.54-0.92,1.2-1.92,1.99-2.99
		c0.78-1.08,1.63-2.18,2.54-3.31c0.66-0.82,1.3-1.59,1.91-2.3c-0.27-0.34-0.49-0.68-0.66-1.03c-0.44-0.93-0.54-1.9-0.32-2.91
		c0.22-1.01,0.7-2.01,1.44-3c0.74-0.99,1.67-1.94,2.81-2.83c1.14-0.9,2.39-1.7,3.75-2.42c1.37-0.71,2.81-1.31,4.33-1.8
		c1.52-0.49,3.04-0.8,4.54-0.94c1.75-0.18,3.35-0.15,4.8,0.06c1.45,0.22,2.56,0.69,3.31,1.4c0.57,0.53,0.87,1.3,0.9,2.3
		c0.03,1-0.13,2.11-0.47,3.34c-0.34,1.23-0.82,2.54-1.43,3.92c-0.61,1.38-1.26,2.72-1.93,4.01c-0.67,1.29-1.34,2.5-2,3.63
		c-0.66,1.13-1.21,2.05-1.66,2.78c1.98-0.62,3.97-1.25,5.96-1.89c1.99-0.64,3.8-1.24,5.43-1.78c0.59-1.29,1.23-2.6,1.9-3.94
		c0.68-1.34,1.36-2.63,2.05-3.87c0.69-1.25,1.36-2.42,2.01-3.53c0.65-1.1,1.24-2.07,1.78-2.91c0.53-0.84,0.98-1.51,1.35-2.02
		c0.37-0.51,0.62-0.79,0.75-0.86c0.43-0.33,0.85-0.46,1.26-0.36c0.41,0.09,0.76,0.26,1.04,0.5c0.28,0.25,0.49,0.51,0.6,0.79
		c0.12,0.28,0.11,0.44-0.02,0.48c-0.28,0.09-0.77,0.55-1.46,1.38c-0.69,0.84-1.48,1.93-2.37,3.29c-0.89,1.35-1.84,2.91-2.84,4.67
		c-1,1.76-1.96,3.61-2.87,5.56c0.81-0.25,1.57-0.51,2.28-0.78c0.71-0.27,1.33-0.54,1.85-0.8c0.52-0.27,0.92-0.53,1.2-0.78
		c0.28-0.26,0.41-0.48,0.38-0.69c0.51,0.36,0.7,0.72,0.57,1.06c-0.12,0.35-0.49,0.7-1.1,1.06c-0.61,0.36-1.42,0.73-2.44,1.11
		c-1.02,0.38-2.15,0.78-3.41,1.21c-0.72,1.51-1.43,3.13-2.12,4.84c-0.69,1.71-1.31,3.42-1.86,5.11c-0.55,1.69-1,3.33-1.34,4.9
		c-0.35,1.57-0.55,2.99-0.6,4.25c-0.57,0.01-1-0.1-1.29-0.33c-0.29-0.23-0.51-0.5-0.64-0.8
		C604.56,390.9,604.47,390.51,604.45,390.08L604.45,390.08z M591.21,372.77c-0.27,0.14-0.55,0.27-0.84,0.39
		c-0.43,0.17-0.85,0.31-1.26,0.4c-0.41,0.09-0.78,0.09-1.11,0c-1.73-0.48-3.15-1.03-4.26-1.66c-1.61,1.87-3.49,4.26-5.64,7.17
		c0.74-0.74,1.53-1.55,2.37-2.41c0.84-0.87,1.62-1.68,2.34-2.44c0.41-0.45,0.81-0.85,1.18-1.22c0.37-0.37,0.77-0.46,1.21-0.27
		c0.44,0.26,0.83,0.64,1.15,1.15c0.32,0.51,0.54,1.02,0.66,1.53c0.06,0.45-0.1,1.05-0.5,1.81c0.97-0.86,1.91-1.73,2.82-2.6
		C590.05,373.93,590.68,373.31,591.21,372.77L591.21,372.77z M605.35,384.28c0.59-1.81,1.24-3.6,1.96-5.36
		c0.72-1.76,1.41-3.36,2.07-4.8c-1.93,0.66-3.91,1.32-5.93,1.99c-2.02,0.67-3.95,1.3-5.8,1.9c1.16,0.32,2.19,0.74,3.09,1.26
		c0.9,0.52,1.67,1.08,2.31,1.68c0.64,0.59,1.15,1.19,1.53,1.78C604.97,383.33,605.22,383.85,605.35,384.28L605.35,384.28z
		 M577.68,380.7c0.02,0.16,0.05,0.24,0.07,0.26c0.03,0.02,0.09,0.02,0.21,0c1.48-0.66,2.78-1.61,3.91-2.85
		c1.13-1.24,2.09-2.63,2.88-4.18c0.01-0.09,0.01-0.17,0-0.24c-0.02-0.16-0.12-0.15-0.31,0.01c-1.13,1.18-2.26,2.35-3.38,3.5
		C579.94,378.35,578.81,379.52,577.68,380.7L577.68,380.7z M549.76,380.87c-0.41,0.81-1,1.62-1.77,2.43
		c-0.77,0.81-1.64,1.58-2.61,2.29c-0.97,0.72-1.99,1.37-3.07,1.96c-1.08,0.59-2.12,1.09-3.13,1.48c-1.01,0.39-1.94,0.66-2.79,0.8
		c-0.84,0.14-1.53,0.12-2.05-0.06c-0.69-0.24-1.1-0.88-1.24-1.89c-0.13-1.02,0-2.27,0.39-3.76c0.39-1.49,1.05-3.12,1.96-4.9
		c0.91-1.78,2.06-3.55,3.45-5.31c1.39-1.77,3.01-3.44,4.87-5.03c1.86-1.59,3.93-2.93,6.2-4.02c0.68-0.32,1.24-0.5,1.68-0.54
		c0.44-0.04,0.77,0.02,1,0.19c0.23,0.16,0.37,0.39,0.42,0.68c0.05,0.29,0.05,0.6,0.01,0.92c-0.45,1-0.88,1.82-1.27,2.48
		c-0.4,0.66-0.76,1.21-1.1,1.64c-0.34,0.43-0.64,0.8-0.92,1.09c-0.28,0.29-0.53,0.57-0.77,0.86c-0.02,0.02,0.17,0.01,0.56-0.04
		c0.39-0.05,0.89-0.28,1.51-0.69c0.61-0.4,1.29-1.05,2.03-1.92c0.74-0.88,1.46-2.14,2.16-3.79c0.03-0.26-0.02-0.49-0.15-0.71
		c-0.13-0.22-0.28-0.41-0.45-0.57c-0.17-0.16-0.33-0.28-0.48-0.38c-0.15-0.09-0.22-0.13-0.22-0.11c-1.31-1.07-2.78-1.61-4.4-1.62
		c-1.63-0.01-3.29,0.36-4.99,1.12c-1.7,0.76-3.38,1.83-5.04,3.21c-1.66,1.38-3.18,2.92-4.57,4.62c-1.39,1.7-2.58,3.47-3.58,5.33
		c-1,1.86-1.69,3.65-2.08,5.38c-0.38,1.73-0.39,3.3-0.02,4.73c0.37,1.43,1.22,2.56,2.54,3.4c0.82,0.48,1.82,0.72,3.02,0.72
		c1.19,0,2.46-0.17,3.81-0.53c1.35-0.36,2.71-0.87,4.08-1.53c1.37-0.66,2.66-1.41,3.86-2.26c-0.44,0.72-0.94,1.51-1.49,2.38
		c-0.55,0.86-1.15,1.7-1.79,2.52c-0.65,0.82-1.33,1.56-2.06,2.23c-0.72,0.67-1.49,1.16-2.3,1.47c-0.81,0.31-1.65,0.38-2.53,0.22
		c-0.87-0.16-1.77-0.66-2.68-1.49c0.09,0.28,0.28,0.63,0.57,1.03c0.29,0.4,0.65,0.8,1.05,1.2c0.41,0.4,0.86,0.76,1.36,1.09
		c0.5,0.33,1,0.56,1.49,0.7c0.87,0.38,1.72,0.46,2.54,0.24c0.82-0.22,1.61-0.63,2.36-1.25c0.75-0.62,1.48-1.39,2.16-2.32
		c0.69-0.93,1.36-1.91,2.01-2.96c0.65-1.05,1.26-2.1,1.84-3.16c0.58-1.06,1.14-2.04,1.67-2.93c0.53-0.89,1.04-1.65,1.52-2.26
		c0.48-0.61,0.94-1,1.37-1.15c0.04-0.03-0.08-0.14-0.37-0.32c-0.29-0.19-0.65-0.37-1.08-0.55c-0.43-0.18-0.89-0.32-1.35-0.43
		C550.44,380.69,550.06,380.72,549.76,380.87z"/>
</g>
</svg>
